<svg xmlns="http://www.w3.org/2000/svg" viewBox="0 0 113 52"><path d="M68.678,50.288h9.739V12.072h0.129l7.466,38.216h8.44l7.077-38.216h0.129v38.216h10.128V1.213H96.011l-5.518,32.236h-0.13	L84.649,1.213H68.678V50.288z M65.368,18.258v-2.061C65.368,4.649,60.109,0.25,50.5,0.25c-15.451,0-16.101,12.578-16.101,25.157	c0,14.777,1.104,25.843,15.062,25.843c13.504,0,16.296-7.904,16.296-18.488v-1.719H55.24c-0.065,7.629-0.519,12.51-4.545,12.51	c-4.545,0-4.999-3.78-4.999-18.352c0-12.853,0.39-17.252,4.74-17.252c3.636,0,4.414,3.162,4.414,10.31H65.368z M31.413,16.128	c0-5.568-0.584-15.878-14.673-15.878C1.289,0.25,0.25,10.698,0.25,26.781c0,15.328,1.949,24.469,13.569,24.469	c4.219,0,8.31-1.237,9.998-5.636h0.13l0.26,4.674h7.466V23.964H16.416v7.697h5.129v1.581c0,6.735-1.298,10.31-4.999,10.31	c-4.35,0-4.999-4.331-4.999-17.733c0-13.059,0.52-17.871,4.999-17.871c4.025,0,4.35,5.017,4.35,8.179H31.413z"/></svg>