<?xml version="1.0" encoding="UTF-8" standalone="no"?>
<!DOCTYPE svg PUBLIC "-//W3C//DTD SVG 1.1//EN" "http://www.w3.org/Graphics/SVG/1.1/DTD/svg11.dtd">
<svg width="100%" height="100%" viewBox="0 0 87 39" version="1.1" xmlns="http://www.w3.org/2000/svg" xmlns:xlink="http://www.w3.org/1999/xlink" xml:space="preserve" xmlns:serif="http://www.serif.com/" style="fill-rule:evenodd;clip-rule:evenodd;stroke-linejoin:round;stroke-miterlimit:2;">
    <g transform="matrix(1,0,0,1,-3.29642,-5.91533)">
        <g transform="matrix(3.91613,0,0,3.91613,-152.369,-133.494)">
            <g transform="matrix(12,0,0,12,39.3898,44.9228)">
                <path d="M0.555,-0.742L0.03,-0.742L0.03,-0.638L0.234,-0.638L0.234,0L0.351,0L0.351,-0.638L0.555,-0.638L0.555,-0.742Z" style="fill-rule:nonzero;"/>
            </g>
            <g transform="matrix(12,0,0,12,46.3978,44.9228)">
                <path d="M0.661,0.034L0.661,-0.742L0.544,-0.742L0.544,-0.266L0.078,-0.777L0.078,0L0.194,0L0.194,-0.477L0.661,0.034Z" style="fill-rule:nonzero;"/>
            </g>
            <g transform="matrix(12,0,0,12,55.2538,44.9228)">
                <path d="M0.555,-0.742L0.03,-0.742L0.03,-0.638L0.234,-0.638L0.234,0L0.351,0L0.351,-0.638L0.555,-0.638L0.555,-0.742Z" style="fill-rule:nonzero;"/>
            </g>
        </g>
    </g>
</svg>
