<?xml version="1.0" encoding="utf-8"?>
<!-- Generator: Adobe Illustrator 24.1.0, SVG Export Plug-In . SVG Version: 6.00 Build 0)  -->
<svg version="1.1" id="Ebene_1" xmlns="http://www.w3.org/2000/svg" xmlns:xlink="http://www.w3.org/1999/xlink" x="0px" y="0px"
	 viewBox="0 0 40 40" style="enable-background:new 0 0 40 40;" xml:space="preserve">
<style type="text/css">
	.st0{fill:#FFFFFF;}
	.st1{fill:#0071BE;}
</style>
<rect x="0.5" y="0.5" width="39" height="39"/>
<path class="st0" d="M39,1v38H1V1H39 M40,0H0v40h40V0z"/>
<path class="st0" d="M98.4,4.2l-4,2.8l-4.1,7l2.8,2.2H81.4l2.8-2.4l-3-5L78.4,14l2.4,2.2H69.1l2.6-2.2L67,6.6l-3.4-2.4h12l-2.7,2.4
	l3.1,4.6l2.6-4.6l-2.7-2.4h12.2l-2.9,2l3.1,4.5L91,6.2l-2.3-2H98.4z"/>
<rect x="15.9" y="1" class="st1" width="8.1" height="38"/>
<rect x="15.9" y="-13.9" transform="matrix(4.491969e-11 -1 1 4.491969e-11 14.9303 25.0697)" class="st1" width="8.1" height="38"/>
</svg>
